<svg id="visual" viewBox="0 0 900 600" width="900" height="600" xmlns="http://www.w3.org/2000/svg" xmlns:xlink="http://www.w3.org/1999/xlink" version="1.1"><rect x="0" y="0" width="900" height="600" fill="#262931"></rect><defs><linearGradient id="grad1_0" x1="33.3%" y1="0%" x2="100%" y2="100%"><stop offset="20%" stop-color="#67416d" stop-opacity="1"></stop><stop offset="80%" stop-color="#67416d" stop-opacity="1"></stop></linearGradient></defs><defs><linearGradient id="grad1_1" x1="33.3%" y1="0%" x2="100%" y2="100%"><stop offset="20%" stop-color="#67416d" stop-opacity="1"></stop><stop offset="80%" stop-color="#3d3853" stop-opacity="1"></stop></linearGradient></defs><defs><linearGradient id="grad1_2" x1="33.3%" y1="0%" x2="100%" y2="100%"><stop offset="20%" stop-color="#262931" stop-opacity="1"></stop><stop offset="80%" stop-color="#3d3853" stop-opacity="1"></stop></linearGradient></defs><defs><linearGradient id="grad2_0" x1="0%" y1="0%" x2="66.7%" y2="100%"><stop offset="20%" stop-color="#67416d" stop-opacity="1"></stop><stop offset="80%" stop-color="#67416d" stop-opacity="1"></stop></linearGradient></defs><defs><linearGradient id="grad2_1" x1="0%" y1="0%" x2="66.7%" y2="100%"><stop offset="20%" stop-color="#3d3853" stop-opacity="1"></stop><stop offset="80%" stop-color="#67416d" stop-opacity="1"></stop></linearGradient></defs><defs><linearGradient id="grad2_2" x1="0%" y1="0%" x2="66.7%" y2="100%"><stop offset="20%" stop-color="#3d3853" stop-opacity="1"></stop><stop offset="80%" stop-color="#262931" stop-opacity="1"></stop></linearGradient></defs><g transform="translate(900, 0)"><path d="M0 432.7C-78.7 423.1 -157.4 413.5 -216.3 374.7C-275.3 335.9 -314.5 267.8 -347.3 200.5C-380 133.2 -406.4 66.6 -432.7 0L0 0Z" fill="#2f3143"></path><path d="M0 288.4C-52.5 282.1 -104.9 275.7 -144.2 249.8C-183.5 223.9 -209.7 178.5 -231.5 133.7C-253.4 88.8 -270.9 44.4 -288.4 0L0 0Z" fill="#503d62"></path><path d="M0 144.2C-26.2 141 -52.5 137.8 -72.1 124.9C-91.8 112 -104.8 89.3 -115.8 66.8C-126.7 44.4 -135.5 22.2 -144.2 0L0 0Z" fill="#67416d"></path></g><g transform="translate(0, 600)"><path d="M0 -432.7C81.1 -424.5 162.2 -416.3 216.3 -374.7C270.4 -333.1 297.5 -258 329.1 -190C360.6 -122 396.7 -61 432.7 0L0 0Z" fill="#2f3143"></path><path d="M0 -288.4C54.1 -283 108.2 -277.5 144.2 -249.8C180.3 -222.1 198.4 -172 219.4 -126.7C240.4 -81.3 264.4 -40.7 288.4 0L0 0Z" fill="#503d62"></path><path d="M0 -144.2C27 -141.5 54.1 -138.8 72.1 -124.9C90.1 -111 99.2 -86 109.7 -63.3C120.2 -40.7 132.2 -20.3 144.2 0L0 0Z" fill="#67416d"></path></g></svg>